<svg viewBox="0 0 675 675" width="30px" height="30px" xmlns="http://www.w3.org/2000/svg">
  <path fill="none" d="M-1-1h677v677H-1z"/>
  <path stroke="null" d="M594.5079 550.93353L440.23 397.0185c22.02342-35.87262 35.3763-77.672 35.3763-122.86943.00002-130.99752-106.51598-237.24383-237.80314-237.24383C106.4968 36.90524 0 143.15154 0 274.14907 0 405.12743 106.4968 511.3929 237.80316 511.3929c45.30398 0 87.20192-13.3215 123.15912-35.2159l154.2779 153.8378c10.83738 10.8119 28.79647 10.73467 39.63385 0l39.63386-39.54063c10.83736-10.8119 10.83736-28.72875 0-39.54064zm-356.70474-118.6219c-87.55058 0-158.53544-70.8179-158.53544-158.16256s70.98486-158.16255 158.53544-158.16255 158.53544 70.8179 158.53544 158.16255-70.98487 158.16255-158.53544 158.16255z"/>
</svg>
